<svg version="1.1" id="Layer_1" xmlns="http://www.w3.org/2000/svg" xmlns:xlink="http://www.w3.org/1999/xlink" x="0px" y="0px"
	 width="100%" viewBox="0 0 512 512" enable-background="new 0 0 512 512" xml:space="preserve">
<path fill="#155bd5" opacity="1.000000" stroke="none" 
	d="
M512.771240,235.637405 
	C513.000000,249.687561 513.000000,263.375122 513.000000,277.531342 
	C512.026062,283.055725 512.455688,288.233734 511.705658,293.302826 
	C507.268066,323.293762 496.484100,350.935547 479.867920,376.170135 
	C446.304688,427.141907 399.553406,459.323761 339.996643,472.656128 
	C325.841919,475.824829 311.396759,477.410339 296.860474,477.417786 
	C205.538513,477.464722 114.216484,477.414734 22.894577,477.495056 
	C15.667275,477.501404 9.321896,476.111664 4.783712,470.001709 
	C0.231056,463.872284 0.612234,457.009094 3.042082,450.509979 
	C5.394635,444.217529 10.948365,441.332092 17.552563,440.643066 
	C19.043478,440.487518 20.549946,440.559509 22.049641,440.559631 
	C72.156120,440.564026 122.262589,440.544678 172.682022,440.569153 
	C163.702637,434.387634 155.147339,428.087341 147.294968,420.902496 
	C144.696869,418.525330 141.607986,418.437683 138.410126,418.438385 
	C117.079445,418.443085 95.748741,418.432281 74.418083,418.452148 
	C70.558876,418.455719 66.761055,418.189789 63.095280,416.868958 
	C55.055058,413.971924 49.644730,405.262970 50.885822,397.198029 
	C52.290157,388.072296 59.058720,381.828766 68.308563,381.639130 
	C80.969910,381.379578 93.637718,381.596741 106.302536,381.539917 
	C107.929932,381.532623 110.107666,382.224457 111.030991,380.801086 
	C112.223618,378.962585 110.186325,377.462891 109.247559,376.007324 
	C88.850815,344.382172 77.220741,309.676636 74.786491,272.268921 
	C72.114578,231.209137 79.845726,191.994202 99.196526,155.354172 
	C102.809914,148.512344 102.676704,148.442352 95.068413,148.441681 
	C70.238167,148.439529 45.407852,148.414764 20.577734,148.466125 
	C15.783302,148.476028 11.311211,147.583893 7.225773,145.026978 
	C4.124544,143.086029 1.875705,140.542526 1.228245,136.365784 
	C1.000000,132.307098 1.000000,128.614182 1.000000,124.460640 
	C3.931405,115.233894 8.935664,111.605186 18.487719,111.592995 
	C52.805244,111.549217 87.123230,111.497772 121.440002,111.661148 
	C126.677765,111.686089 130.653030,110.221626 134.218307,106.353325 
	C145.749771,93.841743 158.475388,82.682922 173.069305,73.416786 
	C146.427277,73.427650 119.995224,73.500580 93.563950,73.382347 
	C81.692101,73.329254 74.314835,65.731316 74.622444,54.296871 
	C74.875664,44.884239 81.459724,37.909534 91.214500,36.757816 
	C93.701508,36.464184 96.206917,36.578796 98.704750,36.578644 
	C164.174683,36.574669 229.645035,36.433994 295.114410,36.627457 
	C335.850342,36.747826 373.836945,47.379787 408.663849,68.531219 
	C445.614685,90.972565 473.661835,121.800186 492.774261,160.559906 
	C502.100220,179.472778 508.794891,199.344055 511.622345,220.354172 
	C512.286682,225.290604 512.550903,230.281708 512.771240,235.637405 
z"/>


<path fill="#FFFFFF" opacity="1.000000" stroke="none" 
	d="
M405.770386,180.367142 
	C416.836090,197.423523 424.784821,215.496140 427.781097,235.213486 
	C430.025421,249.982590 430.063110,264.868591 427.318024,279.902985 
	C424.945953,292.894318 421.046539,305.209167 415.383972,316.874054 
	C410.321991,327.301666 403.678162,336.929626 395.869965,345.662415 
	C383.179260,359.855927 368.565948,371.476440 351.158081,379.353149 
	C337.590424,385.492218 323.468109,389.384857 308.569397,391.145752 
	C287.181519,393.673523 266.764252,390.433685 246.838181,382.982605 
	C233.317841,377.926849 220.958115,370.920197 209.850906,361.504272 
	C198.755585,352.098480 188.838089,341.725159 181.079437,329.470032 
	C171.460770,314.276917 165.067505,297.843872 161.802567,280.000641 
	C159.722549,268.632996 159.546295,257.298401 160.200317,246.013260 
	C160.974762,232.650009 164.306168,219.628174 169.391541,207.150513 
	C175.481262,192.208511 183.670883,178.593246 194.727386,166.755981 
	C206.513428,154.137665 219.757355,143.468170 235.404282,135.963577 
	C250.353043,128.793808 266.004181,124.668373 282.574310,122.770996 
	C300.684326,120.697296 318.173065,123.205162 335.138275,128.304443 
	C353.981781,133.968292 370.729187,143.973297 385.307617,157.591400 
	C392.748810,164.542404 399.125153,172.289352 405.770386,180.367142 
z"/>
<path fill="#155bd5" opacity="1.000000" stroke="none" 
	d="
M223.343918,250.733612 
	C224.184631,250.985611 224.724258,250.891785 225.177719,251.048035 
	C236.764862,255.040237 236.479721,255.081284 238.103043,267.694489 
	C239.139908,275.750854 242.701279,283.117798 247.451050,289.636139 
	C249.198822,292.034637 248.607697,293.408600 247.379105,295.082275 
	C239.712067,305.526886 231.670761,315.714020 224.419449,326.436859 
	C221.967606,330.062531 221.056274,328.663025 219.166779,326.683350 
	C207.077652,314.017090 199.237854,299.102814 194.939926,282.146637 
	C192.078217,270.856598 191.705688,259.439331 192.040100,247.931274 
	C192.095581,246.022781 192.650162,244.123779 193.026886,242.230911 
	C193.472778,239.990585 194.505081,241.491058 195.486084,241.805130 
	C204.647552,244.738388 213.827835,247.612823 223.343918,250.733612 
z"/>
<path fill="#155bd5" opacity="1.000000" stroke="none" 
	d="
M273.730835,312.768433 
	C275.375854,310.212158 277.509399,311.800476 278.754028,312.154449 
	C289.246643,315.138275 299.620911,315.703247 310.074097,312.057281 
	C312.641998,311.161621 314.890533,311.611450 316.693909,314.157288 
	C324.355347,324.972992 332.088593,335.740295 339.980621,346.388184 
	C341.552795,348.509369 340.811859,349.226379 338.976379,349.975342 
	C327.286133,354.745667 315.383575,358.094025 302.612823,359.237335 
	C288.012146,360.544495 274.177399,358.337494 260.502045,353.958466 
	C246.462479,349.462769 246.626770,349.242310 255.590607,337.792511 
	C261.861328,329.782776 267.527802,321.299988 273.730835,312.768433 
z"/>
<path fill="#155bd5" opacity="1.000000" stroke="none" 
	d="
M354.276276,311.776611 
	C349.893799,305.741028 345.955292,299.820038 341.560638,294.259583 
	C340.025513,292.317200 340.719452,291.260101 341.679474,289.832245 
	C348.110931,280.266724 352.140076,269.884796 351.917511,258.213593 
	C351.869568,255.700012 352.906647,254.670273 354.923035,254.033386 
	C367.744080,249.983887 380.598114,246.034805 393.363129,241.816177 
	C395.197601,241.209900 395.894806,240.589859 396.112823,243.052750 
	C396.220001,244.263580 396.981995,245.365280 397.052826,246.744980 
	C398.122467,267.567993 395.204651,287.525085 385.038025,306.104065 
	C380.574127,314.261505 374.633606,321.278442 368.872162,328.452820 
	C368.130707,329.376068 366.931976,329.497742 366.025299,328.209991 
	C362.218201,322.802856 358.372467,317.422882 354.276276,311.776611 
z"/>
<path fill="#155bd5" opacity="1.000000" stroke="none" 
	d="
M345.934814,167.995117 
	C352.313385,171.901352 358.248016,175.846878 363.449280,180.805847 
	C371.797485,188.765121 379.303162,197.386353 384.858673,207.565918 
	C385.760132,209.217682 386.893097,210.344681 383.476593,211.356674 
	C370.750397,215.126282 358.240082,219.619690 345.603180,223.700317 
	C343.231079,224.466324 341.595947,223.902756 339.550537,221.425629 
	C333.212067,213.749283 325.914734,206.955582 315.948120,203.948425 
	C312.422577,202.884674 310.697845,200.954956 310.849152,196.629074 
	C311.279236,184.333176 311.174011,172.008545 310.895386,159.703903 
	C310.810333,155.948700 312.407990,155.399048 315.220978,156.110367 
	C325.820435,158.790695 336.169647,162.156158 345.934814,167.995117 
z"/>
<path fill="#155bd5" opacity="1.000000" stroke="none" 
	d="
M223.092453,216.981369 
	C216.166565,214.781265 209.651031,212.599777 202.918961,210.345779 
	C209.017609,198.113190 217.576675,187.656219 227.875671,178.797104 
	C238.684265,169.499649 251.084961,162.714172 264.837555,158.614731 
	C267.911530,157.698425 270.988525,156.763931 274.113525,156.055649 
	C276.846100,155.436310 278.159119,156.160950 278.095917,159.552109 
	C277.857208,172.360458 277.883698,185.177765 278.086609,197.987335 
	C278.133820,200.967789 277.114197,202.232178 274.477264,203.251801 
	C264.309174,207.183472 255.584167,213.124451 249.250320,222.216110 
	C247.647202,224.517273 245.416199,224.364258 243.070084,223.572250 
	C236.551010,221.371552 230.025665,219.189438 223.092453,216.981369 
z"/>
<path fill="#155bd5" opacity="1.000000" stroke="none" 
	d="
M284.595032,280.860596 
	C277.293793,276.490021 271.839355,271.396942 269.799164,262.863892 
	C267.616516,253.734894 271.570892,241.112381 279.504913,236.180222 
	C294.480103,226.870926 313.769653,231.996307 319.212097,250.484543 
	C323.457092,264.905151 311.741821,281.909027 297.614349,282.136475 
	C293.286102,282.206177 289.177277,281.495636 284.595032,280.860596 
z"/>
</svg>